<svg width="270" height="69" viewBox="0 0 270 69" fill="none" xmlns="http://www.w3.org/2000/svg">
<g clip-path="url(#clip0_1_285)">
<path d="M55.9592 17.1363V14.7336C55.9592 13.5585 55.4924 12.4315 54.6615 11.6006C53.8305 10.7698 52.7036 10.303 51.5285 10.303H33.9645C32.7894 10.303 31.6625 10.7698 30.8316 11.6006C30.0007 12.4315 29.5339 13.5585 29.5339 14.7336H25.3952C24.7449 14.7348 24.1216 14.9937 23.6618 15.4535C23.202 15.9133 22.9431 16.5366 22.9419 17.1869H19.2516C18.9044 17.1879 18.571 17.3236 18.3218 17.5655C18.0727 17.8074 17.9271 18.1366 17.9157 18.4837C17.9157 18.6668 17.9522 18.8481 18.0229 19.017C18.0937 19.1859 18.1974 19.339 18.3279 19.4674C18.4584 19.5958 18.6132 19.6969 18.7833 19.7649C18.9533 19.8328 19.1352 19.8663 19.3183 19.8633H22.9488V22.6039H19.2516C18.9052 22.6037 18.5722 22.7381 18.3229 22.9788C18.0737 23.2195 17.9277 23.5475 17.9157 23.8938C17.9157 24.0767 17.9521 24.2578 18.0227 24.4265C18.0933 24.5953 18.1968 24.7483 18.3271 24.8767C18.4574 25.0051 18.6119 25.1062 18.7817 25.1743C18.9515 25.2425 19.1331 25.2761 19.316 25.2734H22.9488C22.95 25.9237 23.2089 26.5469 23.6687 27.0068C24.1285 27.4666 24.7519 27.7254 25.4021 27.7267H29.5408C29.5408 28.9018 30.0076 30.0287 30.8385 30.8596C31.6694 31.6905 32.7963 32.1573 33.9714 32.1573H51.5354C52.7105 32.1573 53.8374 31.6905 54.6684 30.8596C55.4993 30.0287 55.966 28.9018 55.966 27.7267V25.3309C59.3322 25.3309 62.5606 26.668 64.9404 29.0482C67.3209 31.4284 68.6579 34.6566 68.6579 38.0227V53.3794C68.6579 57.4299 67.049 61.3145 64.185 64.1788C61.3212 67.0434 57.4368 68.653 53.3863 68.6536H15.2739C11.223 68.6536 7.33804 67.044 4.47363 64.1794C1.60921 61.3153 0 57.4303 0 53.3794V51.517H12.6919V53.9174C12.6919 55.0925 13.1587 56.2195 13.9896 57.0504C14.8205 57.8813 15.9474 58.3481 17.1225 58.3481H34.6888C35.8637 58.3474 36.9903 57.8805 37.8211 57.0497C38.6518 56.2189 39.1188 55.0923 39.1194 53.9174H43.2581C43.908 53.9168 44.531 53.6584 44.9905 53.1989C45.45 52.7394 45.7085 52.1163 45.7091 51.4664H49.4086C49.7635 51.4664 50.1038 51.3254 50.3548 51.0745C50.6057 50.8235 50.7468 50.4832 50.7468 50.1282C50.7468 49.7734 50.6057 49.433 50.3548 49.182C50.1038 48.9311 49.7635 48.7901 49.4086 48.7901H45.6999V46.054H49.3994C49.7439 46.0543 50.0753 45.9215 50.3242 45.6832C50.5732 45.445 50.7205 45.1198 50.7352 44.7756C50.7377 44.5912 50.7032 44.408 50.6337 44.2372C50.5642 44.0663 50.4611 43.9111 50.3305 43.7807C50.2 43.6504 50.0446 43.5476 49.8736 43.4783C49.7026 43.4091 49.5195 43.3748 49.335 43.3776H45.6999C45.6999 42.7276 45.4417 42.1042 44.982 41.6445C44.5224 41.1849 43.8989 40.9267 43.2489 40.9267H39.1102C39.1096 39.7518 38.6427 38.6252 37.8119 37.7944C36.9811 36.9636 35.8545 36.4966 34.6796 36.496H17.1133C15.9399 36.4984 14.8152 36.9663 13.9863 37.7969C13.1574 38.6276 12.6919 39.7532 12.6919 40.9267V43.3271C9.32596 43.3265 6.09808 41.9891 3.71803 39.6091C1.33798 37.229 0.0006096 34.0011 0 30.6352V15.2739C0 11.223 1.60921 7.33804 4.47363 4.47363C7.33804 1.60921 11.223 0 15.2739 0H53.3794C57.4283 0.0030475 61.3103 1.61361 64.172 4.47769C67.0341 7.34176 68.6418 11.225 68.6418 15.2739V17.1363H55.9592Z" fill="#1A9552"/>
</g>
<path d="M245.896 39.802C245.896 46.3436 248.431 49.6144 253.501 49.6144C258.572 49.6144 261.107 46.3436 261.107 39.802C261.107 33.4194 258.572 30.2281 253.501 30.2281C248.431 30.2281 245.896 33.4194 245.896 39.802ZM237.992 39.9213C237.992 29.4228 243.162 24.1736 253.501 24.1736C263.841 24.1736 269.01 29.4228 269.01 39.9213C269.01 50.3998 263.841 55.6391 253.501 55.6391C243.202 55.6391 238.032 50.3998 237.992 39.9213Z" fill="#1A9552"/>
<path d="M226.567 32.4353C224.936 31.3616 222.888 30.8248 220.423 30.8248C215.511 30.8248 213.056 33.5786 213.056 39.0863C213.056 45.628 215.611 48.8988 220.721 48.8988C222.789 48.8988 224.737 48.6105 226.567 48.0339V32.4353ZM234.47 53.7006C229.678 54.9533 224.996 55.5796 220.423 55.5796C210.302 55.5796 205.242 50.1514 205.242 39.2951C205.242 29.2739 210.193 24.2632 220.095 24.2632C222.202 24.2632 224.36 24.7603 226.567 25.7545V12.9297H234.47V53.7006Z" fill="#1A9552"/>
<path d="M173.207 55.5796V24.2632H179.321L180.306 28.8563C183.308 25.7942 186.728 24.2632 190.565 24.2632C197.982 24.2632 201.69 28.1206 201.69 35.8353V55.5796H193.787V35.8353C193.787 32.3756 192.067 30.6458 188.627 30.6458C186.062 30.6458 183.557 31.6698 181.111 33.7177V55.5796H173.207Z" fill="#1A9552"/>
<path d="M155.459 24.2632C164.963 24.2632 169.715 29.1147 169.715 38.8178C169.715 40.1103 169.626 41.4027 169.447 42.6951H148.659C148.659 47.1092 151.9 49.3163 158.382 49.3163C161.543 49.3163 164.705 49.018 167.866 48.4215V54.6848C165.102 55.2813 161.742 55.5796 157.785 55.5796C146.432 55.5796 140.755 50.2409 140.755 39.5635C140.755 29.3633 145.656 24.2632 155.459 24.2632ZM148.659 37.2073H162.02V36.9687C162.02 32.6341 159.833 30.4668 155.459 30.4668C151.283 30.4668 149.017 32.7136 148.659 37.2073Z" fill="#1A9552"/>
<path d="M124.379 19.1929H130.224L131.417 24.2631H139.291V30.5264H132.282V44.932C132.282 47.8548 133.545 49.3163 136.07 49.3163H139.291V55.5795H132.252C127.003 55.5795 124.379 52.766 124.379 47.139V19.1929Z" fill="#1A9552"/>
<path d="M89.0929 53.79V46.632C93.3679 48.2227 98.1995 49.018 103.588 49.018C110.13 49.018 113.4 46.8308 113.4 42.4565C113.4 39.2751 111.392 37.6845 107.376 37.6845H100.695C91.9661 37.6845 87.6017 33.7078 87.6017 25.7544C87.6017 17.0057 93.8153 12.6313 106.242 12.6313C111.014 12.6313 115.538 13.3273 119.813 14.7191V21.8771C115.538 20.2865 111.014 19.4911 106.242 19.4911C99.0844 19.4911 95.5053 21.5789 95.5053 25.7544C95.5053 28.9358 97.2352 30.5264 100.695 30.5264H107.376C116.661 30.5264 121.304 34.5031 121.304 42.4565C121.304 51.404 115.399 55.8778 103.588 55.8778C98.1995 55.8778 93.3679 55.1819 89.0929 53.79Z" fill="#1A9552"/>
<defs>
<clipPath id="clip0_1_285">
<rect width="68.9" height="68.9" fill="white"/>
</clipPath>
</defs>
</svg>
